<?xml version="1.0" encoding="utf-8"?>
<svg version="1.0" width="2892.000000pt" height="3332.000000pt" viewBox="0 0 2892.000000 3332.000000" preserveAspectRatio="xMidYMid meet" xmlns="http://www.w3.org/2000/svg">
  <defs>
    <linearGradient gradientUnits="userSpaceOnUse" x1="14461" y1="1" x2="14461" y2="33315.656" id="gradient-0" gradientTransform="matrix(0.774053, 0.63312, -0.690387, 0.810454, 14807.105151, -5836.367329)">
      <stop offset="0" style="stop-color: rgb(207, 112, 90);"/>
      <stop offset="1" style="stop-color: rgb(140, 72, 210);"/>
    </linearGradient>
  </defs>
  <g transform="translate(0.000000,3332.000000) scale(0.100000,-0.100000)" fill="#000000" stroke="none">
    <path d="M14210 33197 c-739 -407 -2382 -1345 -4010 -2290 -256 -148 -973 -566 -1595 -927 -621 -362 -1989 -1157 -3040 -1767 -1050 -611 -2223 -1292 -2605 -1515 -382 -222 -1205 -699 -1828 -1058 l-1132 -654 2 -4151 c3 -6584 14 -9305 40 -9305 12 0 222 120 928 530 589 342 1832 1070 1839 1076 7 6 27 4420 37 7616 6 2361 9 2599 23 2611 9 7 97 58 196 112 349 191 1024 579 4925 2833 1433 828 2898 1673 3255 1877 1897 1085 3209 1799 3276 1782 64 -17 974 -527 2724 -1527 1409 -805 1998 -1145 6224 -3588 l2593 -1500 -1 -808 c-1 -445 -6 -1488 -11 -2319 -5 -830 -12 -2012 -16 -2625 -4 -613 -10 -1135 -13 -1160 l-6 -44 -260 -152 c-143 -83 -514 -298 -824 -479 -707 -411 -987 -567 -1266 -706 -201 -99 -306 -141 -320 -128 -16 17 -38 506 -55 1234 -13 549 -50 4637 -50 5442 l0 162 -82 49 c-46 26 -387 230 -758 452 -933 557 -1432 841 -1655 942 l-60 27 -155 -152 c-85 -84 -1484 -1479 -3108 -3102 -1623 -1622 -2956 -2950 -2961 -2950 -5 0 -1346 1359 -2981 3020 -1634 1661 -3023 3071 -3085 3134 l-113 114 -98 -53 c-169 -90 -431 -243 -929 -544 -264 -159 -726 -436 -1026 -617 l-546 -328 -6 -1073 c-4 -590 -11 -2254 -17 -3698 -6 -1444 -13 -3246 -16 -4006 l-6 -1380 -1837 -1090 c-2488 -1476 -3253 -1931 -3347 -1994 -179 -120 -304 -230 -304 -268 0 -9 15 -26 33 -38 238 -154 2994 -1750 7157 -4144 2727 -1568 6046 -3464 6804 -3886 l328 -183 62 31 c217 110 1946 1092 3803 2161 1308 753 6470 3734 7473 4315 1062 615 1294 749 2229 1283 l883 504 -5 1240 c-4 682 -11 1348 -16 1480 -12 283 -29 518 -39 546 -7 17 -57 -9 -497 -262 -1232 -708 -5753 -3328 -9810 -5686 -2514 -1461 -2648 -1538 -3055 -1765 -652 -364 -992 -528 -1095 -528 -41 0 -85 21 -360 173 -1689 931 -8032 4666 -8133 4789 -11 14 -2 24 65 73 191 140 708 467 1228 776 171 102 529 315 798 474 l487 288 0 2691 c0 2728 11 4839 30 5621 10 421 15 505 29 505 29 0 1651 -1587 3521 -3445 1299 -1290 2306 -2273 2389 -2331 21 -15 25 -13 74 25 140 108 761 695 1487 1405 151 148 1196 1190 2323 2315 l2047 2046 0 -310 c0 -1250 35 -6198 50 -6960 16 -823 40 -1451 56 -1477 10 -16 316 151 1168 634 840 477 4415 2541 6353 3668 l902 525 -5 895 c-2 492 -9 2256 -15 3920 -7 1664 -14 3558 -18 4209 l-6 1184 -2795 1624 c-1537 894 -3855 2239 -5150 2990 -2925 1697 -4061 2356 -4760 2763 -932 542 -1603 906 -1706 925 -24 5 -71 -17 -254 -118z" style="stroke: rgba(187, 218, 85, 0); fill: url(#gradient-0);"/>
  </g>
</svg>